<svg width="18" height="26" viewBox="0 0 18 26" fill="none" xmlns="http://www.w3.org/2000/svg">
<path d="M15.2591 0C16.212 4.24733e-05 16.8668 0.399076 17.2738 0.924805C17.6635 1.42848 17.8076 2.02166 17.8236 2.42871V21.1504L17.8255 21.333C17.8121 22.2316 17.4509 22.8593 16.9495 23.2549C16.6198 23.515 16.2469 23.659 15.9124 23.7295V24.9795C15.9124 25.2909 15.7235 25.5075 15.6077 25.6143C15.4802 25.7318 15.3357 25.8147 15.2327 25.8604L15.1361 25.9033H14.1888C13.8783 25.9033 13.6343 25.7607 13.4759 25.6279C13.3176 25.4951 13.2019 25.3375 13.137 25.2178L13.1253 25.1943L12.4964 23.8701H5.33626L4.71321 25.25C4.62167 25.5357 4.40899 25.702 4.22981 25.7871C4.04246 25.876 3.8474 25.9033 3.71321 25.9033H2.74153L2.68782 25.8916C2.38782 25.8251 2.18306 25.6442 2.05696 25.4707C1.93571 25.3037 1.86996 25.1219 1.84505 24.9844L1.83723 24.9404V23.7451C1.19237 23.6377 0.731856 23.3229 0.432937 22.9141C0.0875749 22.4414 -0.00979672 21.8893 0.00227335 21.5068V2.78711C-0.0281741 1.80866 0.249887 1.1126 0.676101 0.65332C1.0943 0.202839 1.6182 0.0214277 2.0052 0.000976562L2.0179 0H15.2591ZM7.87532 22.7695H9.79329V1.0166H7.87532V22.7695ZM6.54036 11.8506C6.24475 11.8506 6.00423 12.0901 6.00423 12.3857V13.5176C6.00429 13.8131 6.24479 14.0527 6.54036 14.0527C6.83572 14.0525 7.07545 13.813 7.07552 13.5176V12.3857C7.07552 12.0903 6.83575 11.8508 6.54036 11.8506ZM11.1273 11.8506C10.8319 11.8508 10.5921 12.0903 10.5921 12.3857V13.5176C10.5922 13.813 10.8319 14.0525 11.1273 14.0527C11.4228 14.0527 11.6633 13.8131 11.6634 13.5176V12.3857C11.6634 12.0901 11.4229 11.8506 11.1273 11.8506Z" fill="#EDF25E"/>
</svg>
