<svg width="20" height="20" viewBox="0 0 20 20" fill="none" xmlns="http://www.w3.org/2000/svg">
<path d="M6.375 17.425C6.35 17.425 6.31667 17.4417 6.29167 17.4417C4.675 16.6417 3.35834 15.3167 2.55 13.7C2.55 13.675 2.56667 13.6417 2.56667 13.6167C3.58334 13.9167 4.63334 14.1417 5.675 14.3167C5.85834 15.3667 6.075 16.4084 6.375 17.425Z" fill="#EDF25E"/>
<path d="M17.45 13.7084C16.625 15.3667 15.25 16.7084 13.575 17.5167C13.8917 16.4584 14.1583 15.3917 14.3333 14.3167C15.3833 14.1417 16.4167 13.9167 17.4333 13.6167C17.425 13.65 17.45 13.6834 17.45 13.7084Z" fill="#EDF25E"/>
<path d="M17.5167 6.42507C16.4667 6.1084 15.4083 5.85007 14.3333 5.66673C14.1583 4.59173 13.9 3.52507 13.575 2.4834C15.3 3.3084 16.6917 4.70007 17.5167 6.42507Z" fill="#EDF25E"/>
<path d="M6.375 2.5748C6.075 3.59147 5.85834 4.6248 5.68334 5.6748C4.60834 5.84147 3.54167 6.10814 2.48334 6.4248C3.29167 4.7498 4.63334 3.3748 6.29167 2.5498C6.31667 2.5498 6.35 2.5748 6.375 2.5748Z" fill="#EDF25E"/>
<path d="M12.9083 5.4915C10.975 5.27484 9.02499 5.27484 7.09166 5.4915C7.29999 4.34984 7.56666 3.20817 7.94166 2.10817C7.95833 2.0415 7.94999 1.9915 7.95833 1.92484C8.61666 1.7665 9.29166 1.6665 9.99999 1.6665C10.7 1.6665 11.3833 1.7665 12.0333 1.92484C12.0417 1.9915 12.0417 2.0415 12.0583 2.10817C12.4333 3.2165 12.7 4.34984 12.9083 5.4915Z" fill="#EDF25E"/>
<path d="M5.49167 12.9085C4.34167 12.7001 3.20834 12.4335 2.10834 12.0585C2.04167 12.0418 1.99167 12.0501 1.92501 12.0418C1.76667 11.3835 1.66667 10.7085 1.66667 10.0001C1.66667 9.30013 1.76667 8.6168 1.92501 7.9668C1.99167 7.95846 2.04167 7.95846 2.10834 7.9418C3.21667 7.57513 4.34167 7.30013 5.49167 7.0918C5.28334 9.02513 5.28334 10.9751 5.49167 12.9085Z" fill="#EDF25E"/>
<path d="M18.3333 10.0001C18.3333 10.7085 18.2333 11.3835 18.075 12.0418C18.0083 12.0501 17.9583 12.0418 17.8917 12.0585C16.7833 12.4251 15.65 12.7001 14.5083 12.9085C14.725 10.9751 14.725 9.02513 14.5083 7.0918C15.65 7.30013 16.7917 7.5668 17.8917 7.9418C17.9583 7.95846 18.0083 7.9668 18.075 7.9668C18.2333 8.62513 18.3333 9.30013 18.3333 10.0001Z" fill="#EDF25E"/>
<path d="M12.9083 14.5083C12.7 15.6583 12.4333 16.7916 12.0583 17.8916C12.0417 17.9583 12.0417 18.0083 12.0333 18.075C11.3833 18.2333 10.7 18.3333 9.99999 18.3333C9.29166 18.3333 8.61666 18.2333 7.95833 18.075C7.94999 18.0083 7.95833 17.9583 7.94166 17.8916C7.57499 16.7833 7.29999 15.6583 7.09166 14.5083C8.05833 14.6166 9.02499 14.6916 9.99999 14.6916C10.975 14.6916 11.95 14.6166 12.9083 14.5083Z" fill="#EDF25E"/>
<path d="M13.1361 13.1359C11.0519 13.3989 8.94814 13.3989 6.8639 13.1359C6.60093 11.0517 6.60093 8.94797 6.8639 6.86373C8.94814 6.60076 11.0519 6.60076 13.1361 6.86373C13.3991 8.94797 13.3991 11.0517 13.1361 13.1359Z" fill="#EDF25E"/>
</svg>
