<svg width="35" height="46" viewBox="0 0 35 46" fill="none" xmlns="http://www.w3.org/2000/svg">
<path d="M29.8457 0C31.5646 0.00017097 32.72 0.640613 33.4443 1.48535C34.1524 2.31141 34.4197 3.29826 34.4492 3.97461L34.4502 3.98535V37.5947H34.4492C34.5105 39.2755 33.811 40.3787 32.8799 41.042C32.1628 41.5526 31.3294 41.7868 30.6494 41.8633V44.4355C30.6493 44.8486 30.373 45.142 30.1846 45.2988C29.9773 45.4713 29.7385 45.5948 29.5752 45.6602L29.4854 45.6963H27.7168C27.2708 45.6963 26.9008 45.5103 26.6357 45.3096C26.3727 45.1103 26.1789 44.8708 26.0723 44.6934L26.0645 44.6807L26.0586 44.6689L24.6787 42.0469H9.7832L8.41309 44.7852C8.28106 45.1909 7.95775 45.4179 7.68652 45.5342C7.3985 45.6576 7.09311 45.6962 6.88965 45.6963H5.01562L4.9668 45.6865C4.08316 45.5098 3.7342 44.7416 3.66211 44.3818L3.65234 44.333V41.874C2.28249 41.7679 1.3587 41.227 0.780273 40.5127C0.159091 39.7453 -0.0194957 38.8334 0.00488281 38.2031H0.00390625V4.60449H0.00488281C-0.0558465 2.91143 0.477526 1.76045 1.23145 1.02734C1.97248 0.306798 2.88352 0.0313965 3.52051 0.000976562L3.5332 0H29.8457ZM15.6572 40.0713H18.4814V1.82422H15.6572V40.0713ZM12.5088 20.8711C11.9211 20.8711 11.4443 21.3478 11.4443 21.9355V23.7598C11.4443 24.3475 11.9211 24.8242 12.5088 24.8242C13.0965 24.8242 13.5732 24.3475 13.5732 23.7598V21.9355C13.5732 21.3478 13.0965 20.8711 12.5088 20.8711ZM21.6309 20.8711C21.0431 20.8711 20.5664 21.3478 20.5664 21.9355V23.7598C20.5664 24.3475 21.0431 24.8242 21.6309 24.8242C22.2184 24.824 22.6943 24.3474 22.6943 23.7598V21.9355C22.6943 21.3479 22.2184 20.8713 21.6309 20.8711Z" fill="#D9D4FA"/>
</svg>
